HIERARCHY
ROOT Hips
{
	OFFSET -0.001795 -0.223333 0.028219
	CHANNELS 6 Xposition Yposition Zposition Zrotation Yrotation Xrotation 
	JOINT LeftUpLeg
	{
		OFFSET 0.069520 -0.091406 -0.006815
		CHANNELS 3 Zrotation Yrotation Xrotation
		JOINT LeftLeg
		{
			OFFSET 0.034277 -0.375199 -0.004496
			CHANNELS 3 Zrotation Yrotation Xrotation
			JOINT LeftFoot
			{
				OFFSET -0.013596 -0.397961 -0.043693
				CHANNELS 3 Zrotation Yrotation Xrotation
				JOINT LeftToe
				{
					OFFSET 0.026358 -0.055791 0.119288
					CHANNELS 3 Zrotation Yrotation Xrotation
					End Site
					{
						OFFSET 0.000000 0.000000 0.000000
					}
				}
			}
		}
	}
	JOINT RightUpLeg
	{
		OFFSET -0.067670 -0.090522 -0.004320
		CHANNELS 3 Zrotation Yrotation Xrotation
		JOINT RightLeg
		{
			OFFSET -0.038290 -0.382569 -0.008850
			CHANNELS 3 Zrotation Yrotation Xrotation
			JOINT RightFoot
			{
				OFFSET 0.015774 -0.398415 -0.042312
				CHANNELS 3 Zrotation Yrotation Xrotation
				JOINT RightToe
				{
					OFFSET -0.025372 -0.048144 0.123348
					CHANNELS 3 Zrotation Yrotation Xrotation
					End Site
					{
						OFFSET 0.000000 0.000000 0.000000
					}
				}
			}
		}
	}
	JOINT Spine
	{
		OFFSET -0.002533 0.108963 -0.026696
		CHANNELS 3 Zrotation Yrotation Xrotation
		JOINT Spine1
		{
			OFFSET 0.005487 0.135180 0.001092
			CHANNELS 3 Zrotation Yrotation Xrotation
			JOINT Spine2
			{
				OFFSET 0.001457 0.052922 0.025425
				CHANNELS 3 Zrotation Yrotation Xrotation
				JOINT Neck
				{
					OFFSET -0.002778 0.213870 -0.042857
					CHANNELS 3 Zrotation Yrotation Xrotation
					JOINT Head
					{
						OFFSET 0.005152 0.064970 0.051349
						CHANNELS 3 Zrotation Yrotation Xrotation
						End Site
						{
							OFFSET 0.000000 0.000000 0.000000
						}
					}
				}
				JOINT LeftShoulder
				{
					OFFSET 0.078845 0.121749 -0.034090
					CHANNELS 3 Zrotation Yrotation Xrotation
					JOINT LeftArm
					{
						OFFSET 0.090977 0.030469 -0.008868
						CHANNELS 3 Zrotation Yrotation Xrotation
						JOINT LeftForeArm
						{
							OFFSET 0.259612 -0.012772 -0.027456
							CHANNELS 3 Zrotation Yrotation Xrotation
							JOINT LeftHand
							{
								OFFSET 0.249234 0.008986 -0.001171
								CHANNELS 3 Zrotation Yrotation Xrotation
								End Site
								{
									OFFSET 0.000000 0.000000 0.000000
								}
							}
						}
					}
				}
				JOINT RightShoulder
				{
					OFFSET -0.081759 0.118833 -0.038615
					CHANNELS 3 Zrotation Yrotation Xrotation
					JOINT RightArm
					{
						OFFSET -0.096012 0.032551 -0.009143
						CHANNELS 3 Zrotation Yrotation Xrotation
						JOINT RightForeArm
						{
							OFFSET -0.253742 -0.013329 -0.021401
							CHANNELS 3 Zrotation Yrotation Xrotation
							JOINT RightHand
							{
								OFFSET -0.255298 0.007772 -0.005559
								CHANNELS 3 Zrotation Yrotation Xrotation
								End Site
								{
									OFFSET 0.000000 0.000000 0.000000
								}
							}
						}
					}
				}
			}
		}
	}
}
MOTION
Frames: 12
Frame Time: 0.050000
1.922253 0.971244 1.875453 -6.694316 -25.275869 4.616346 -5.370762 0.209646 1.748426 3.761727 -0.638716 2.576106 2.663351 6.029463 5.846279 0.000000 0.000000 0.000000 -3.611676 2.300534 -19.981258 2.651887 1.264894 19.697404 -2.346971 -12.237432 11.434476 0.000000 0.000000 0.000000 -3.621836 0.156443 8.411412 7.011823 -1.052175 -25.450636 -2.486881 -3.283393 34.325579 -8.004111 2.857425 -34.299521 0.000000 0.000000 0.000000 -23.038370 8.627341 -0.774695 -53.587206 -19.694322 -1.264031 -11.517447 -48.579650 12.098799 0.000000 0.000000 0.000000 10.719367 0.481922 -3.471769 58.827116 -3.612879 -11.449151 8.701381 26.464444 1.843982 0.000000 0.000000 0.000000 
1.896040 0.966895 1.910201 -5.900349 -19.853969 4.646294 -4.444895 0.402371 2.929631 3.562430 -0.673164 4.477202 0.476844 1.664369 3.285303 0.000000 0.000000 0.000000 -3.442498 2.191508 -20.098145 0.579704 0.293400 6.366066 -0.787161 -9.132815 11.722524 0.000000 0.000000 0.000000 -3.755762 0.137610 8.408987 7.172940 -1.082641 -25.380177 -2.562570 -3.907653 33.222550 -7.596785 3.123048 -33.721609 0.000000 0.000000 0.000000 -23.706226 8.218675 -1.306235 -52.592081 -19.485416 -1.423392 -12.967262 -51.655140 13.360238 0.000000 0.000000 0.000000 10.802637 1.142103 -2.652850 59.324288 -2.132888 -10.634062 7.217583 27.259901 1.819875 0.000000 0.000000 0.000000 
1.868901 0.961531 1.948368 -5.318321 -16.449904 4.969670 -3.285323 0.418215 3.189558 4.664889 -1.028487 8.517948 -0.340514 -0.500419 0.802621 0.000000 0.000000 0.000000 -3.207472 2.368753 -21.926067 1.545042 -0.004954 2.886355 1.116386 -5.074349 11.649860 0.000000 0.000000 0.000000 -4.033245 0.138180 7.628733 7.695342 -1.143825 -25.615343 -2.395945 -3.198223 33.320816 -7.581004 3.605682 -32.414088 0.000000 0.000000 0.000000 -23.782939 9.260086 -2.861441 -51.978017 -18.110375 -1.975465 -15.500140 -53.017020 14.649784 0.000000 0.000000 0.000000 11.739915 2.434521 -1.763727 59.054063 -0.162384 -9.418205 6.311642 30.204090 2.052361 0.000000 0.000000 0.000000 
1.841082 0.958429 1.991096 -5.044726 -11.511267 4.340358 -1.219306 0.273092 2.470584 5.652056 -1.581732 14.836461 -1.794113 -4.410778 -1.221120 0.000000 0.000000 0.000000 -2.694324 2.096154 -20.640644 2.097543 -0.000575 5.420942 1.207470 -5.265206 14.050510 0.000000 0.000000 0.000000 -3.590299 0.053614 6.955803 7.529104 -1.344684 -23.554806 -1.528286 -2.652320 31.336730 -6.978229 3.927646 -31.350437 0.000000 0.000000 0.000000 -24.943266 9.319827 -4.197015 -50.286456 -15.682064 -2.770314 -15.478135 -50.624515 12.782851 0.000000 0.000000 0.000000 12.603964 3.904898 -0.526127 58.872707 2.810492 -7.546359 2.674350 29.768894 1.449512 0.000000 0.000000 0.000000 
1.814823 0.957365 2.035917 -5.328827 -8.067030 4.187293 2.315490 -0.175141 -2.247419 2.314770 -1.059345 28.151624 -1.056527 -1.833617 1.067630 0.000000 0.000000 0.000000 -1.925186 1.963495 -19.553824 2.996459 -0.039086 9.390383 -0.670817 -8.335463 14.738145 0.000000 0.000000 0.000000 -1.595508 -0.129311 6.357877 6.233220 -0.858344 -25.266913 -0.473250 -0.632699 32.289522 -6.961913 4.693555 -28.284148 0.000000 0.000000 0.000000 -26.047855 8.778392 -5.185247 -49.590001 -12.679776 -3.951037 -15.593859 -46.852052 10.974288 0.000000 0.000000 0.000000 12.610948 4.214193 0.451611 58.560565 4.309262 -6.827948 2.756395 28.513399 1.728365 0.000000 0.000000 0.000000 
1.793656 0.958912 2.078443 -5.530613 -2.961563 2.842611 4.635680 -0.563146 -10.691821 -0.500552 -0.739886 45.622057 0.188937 3.406679 7.839097 0.000000 0.000000 0.000000 -1.217621 1.528714 -15.793888 3.872623 -0.271660 11.189317 -3.097365 -11.454060 13.136619 0.000000 0.000000 0.000000 -1.086242 -0.233100 7.779246 6.515238 -0.831397 -25.926019 0.863972 1.025440 31.966480 -6.436798 5.184559 -28.636576 0.000000 0.000000 0.000000 -29.045506 8.380851 -7.192648 -47.159864 -9.203798 -4.725573 -16.001736 -42.188280 8.985321 0.000000 0.000000 0.000000 11.715832 5.137040 1.811851 57.803112 5.682353 -5.902983 2.646838 28.180087 1.956951 0.000000 0.000000 0.000000 
1.778497 0.961973 2.118338 -4.978086 1.543986 2.082420 4.687722 -1.074099 -19.038073 -4.207998 0.080358 55.703245 4.588655 11.636971 9.119818 0.000000 0.000000 0.000000 -0.495111 1.068192 -10.922930 3.309738 -0.279378 10.392520 -4.544282 -13.479442 13.218336 0.000000 0.000000 0.000000 -1.945830 -0.205560 8.623784 6.379636 -0.659539 -27.336381 2.290164 3.509430 32.965664 -4.752009 5.159580 -27.360099 0.000000 0.000000 0.000000 -29.886866 7.559065 -8.969040 -46.384168 -6.094423 -5.260083 -15.507119 -36.859566 6.922060 0.000000 0.000000 0.000000 12.956739 5.527124 3.003855 55.969217 8.827845 -4.332215 1.005262 26.010221 1.646724 0.000000 0.000000 0.000000 
1.767415 0.966320 2.156405 -3.942666 4.197913 2.039976 5.422765 -1.449657 -25.225397 -10.505324 3.347362 53.696472 9.263770 19.514544 11.409008 0.000000 0.000000 0.000000 -0.938180 0.671433 -7.004570 4.121923 -0.502484 8.902765 -5.157742 -14.283005 13.199879 0.000000 0.000000 0.000000 -3.299452 -0.111148 9.215542 5.755231 -0.533405 -26.919595 3.984379 6.356065 32.566978 -3.456810 5.177432 -26.727946 0.000000 0.000000 0.000000 -29.640216 5.756288 -9.595626 -45.928735 -2.703507 -5.873053 -12.464719 -31.807808 4.606128 0.000000 0.000000 0.000000 14.721894 5.984531 4.239796 53.660227 11.387423 -3.161592 -0.885835 27.323118 1.473345 0.000000 0.000000 0.000000 
1.759318 0.968674 2.192867 -3.237829 5.279744 2.231399 5.346121 -1.815449 -29.075122 -13.418989 4.155763 42.310270 12.549896 24.564925 11.760556 0.000000 0.000000 0.000000 -0.532491 0.236546 -2.261709 3.396011 -0.377481 5.668373 -5.403833 -14.639972 13.279321 0.000000 0.000000 0.000000 -4.362832 -0.030288 10.108115 5.009430 -0.319742 -27.607672 5.488550 9.947943 32.665140 -3.544672 5.920637 -26.652703 0.000000 0.000000 0.000000 -28.131549 7.265568 -11.847199 -45.592052 2.052808 -7.092234 -11.361213 -28.527880 3.491432 0.000000 0.000000 0.000000 15.092063 6.390904 5.324313 51.699064 14.445411 -1.856457 -2.084055 27.550381 1.313068 0.000000 0.000000 0.000000 
1.754882 0.965711 2.229032 -3.155501 7.394425 2.699627 4.360874 -2.247681 -29.500134 -10.766249 1.969922 23.681116 15.195621 28.195950 15.033671 0.000000 0.000000 0.000000 0.348670 -0.218968 1.951597 3.039622 -0.352130 2.871441 -6.214580 -15.942613 13.188112 0.000000 0.000000 0.000000 -4.682757 -0.021111 10.438350 4.057299 -0.140911 -26.718044 5.781822 11.308494 32.053479 -2.331997 5.646913 -27.156443 0.000000 0.000000 0.000000 -26.138486 8.376912 -12.852840 -46.979497 5.061555 -8.245303 -7.883777 -26.492973 2.216492 0.000000 0.000000 0.000000 14.127806 7.122980 5.997632 52.406488 17.936229 0.066157 -3.833109 27.954148 1.029586 0.000000 0.000000 0.000000 
1.755013 0.959423 2.266019 -3.382925 8.002255 2.699950 3.555502 -2.362444 -28.429936 -6.583970 0.706170 8.374466 13.820187 26.216799 18.543960 0.000000 0.000000 0.000000 1.602361 -0.781076 5.978671 2.652428 -0.314535 1.130272 -6.459318 -16.398852 12.361304 0.000000 0.000000 0.000000 -5.724769 0.066694 11.214886 3.698882 -0.028025 -27.501290 7.513517 13.118355 32.696371 -2.279251 6.001102 -28.626498 0.000000 0.000000 0.000000 -24.720401 8.599658 -13.193794 -46.524769 8.935051 -9.561114 -6.271033 -23.141904 1.508565 0.000000 0.000000 0.000000 13.494712 7.864093 6.584879 51.232744 20.275798 1.148729 -5.953325 31.510010 0.789155 0.000000 0.000000 0.000000 
1.760659 0.952352 2.306248 -3.554331 10.107238 3.200204 2.695191 -2.543912 -27.213602 -6.190061 0.553780 2.853956 13.369856 25.833867 18.823641 0.000000 0.000000 0.000000 2.141035 -1.148735 8.191114 2.912564 -0.359447 2.172433 -7.226306 -17.769618 11.895646 0.000000 0.000000 0.000000 -5.822655 0.052462 11.260008 3.257680 0.075612 -27.410954 7.620849 14.516547 32.876741 -1.735264 6.134037 -29.283242 0.000000 0.000000 0.000000 -23.656157 9.576895 -14.250664 -47.201195 9.814693 -9.989613 -2.729032 -20.619582 0.589329 0.000000 0.000000 0.000000 11.954157 6.915243 6.121369 52.594866 22.246502 2.692737 -6.157432 32.515157 0.949980 0.000000 0.000000 0.000000 
